<?xml version="1.0" encoding="iso-8859-1"?>
<!-- Generator: Adobe Illustrator 22.0.1, SVG Export Plug-In . SVG Version: 6.00 Build 0)  -->
<svg version="1.1" id="Layer_1" xmlns="http://www.w3.org/2000/svg" xmlns:xlink="http://www.w3.org/1999/xlink" x="0px" y="0px"
	 viewBox="0 0 100.25 100.25" style="enable-background:new 0 0 100.25 100.25;" xml:space="preserve">
<g>
	<path d="M83.185,54.724c3.428-3.459,5.315-8.133,5.315-13.161C88.5,30.776,79.383,22,68.176,22
		c-7.834,0-14.841,4.332-18.208,10.903c-3.394-6.5-10.375-10.783-18.144-10.783c-11.207,0-20.324,8.776-20.324,19.563
		c0,5.01,1.857,9.652,5.229,13.07c7.745,7.85,32,30.612,32.245,30.841C49.262,85.864,49.631,86,50,86
		c0.371,0,0.741-0.137,1.03-0.409C51.272,85.361,75.429,62.546,83.185,54.724z M49.997,82.438
		C45.274,78,25.656,59.529,18.865,52.646C16.05,49.793,14.5,45.9,14.5,41.683c0-9.133,7.771-16.563,17.324-16.563
		c7.818,0,14.692,5.049,16.715,12.277c0.181,0.648,0.772,1.096,1.444,1.096c0.002,0,0.003,0,0.005,0
		c0.675-0.002,1.265-0.455,1.442-1.106C53.416,30.094,60.302,25,68.176,25C77.729,25,85.5,32.43,85.5,41.563
		c0,4.232-1.579,8.156-4.446,11.048C74.248,59.476,54.703,77.987,49.997,82.438z"/>
	<path d="M11.158,57.407C7.832,53.919,6,49.158,6,44c0-0.829-0.671-1.5-1.5-1.5S3,43.171,3,44c0,5.932,2.126,11.429,5.987,15.478
		c1.704,1.788,4.211,4.339,7.452,7.583c0.293,0.293,0.677,0.439,1.061,0.439c0.384,0,0.767-0.146,1.06-0.438
		c0.586-0.586,0.586-1.535,0.001-2.122C15.337,61.713,12.846,59.179,11.158,57.407z"/>
	<path d="M93.226,27.635c-0.478-0.677-1.414-0.838-2.091-0.36c-0.677,0.478-0.838,1.414-0.36,2.091
		c2.438,3.452,3.726,7.538,3.726,11.815c0,3.417-0.807,6.742-2.333,9.617c-0.388,0.731-0.11,1.64,0.622,2.028
		C93.013,52.944,93.254,53,93.491,53c0.537,0,1.057-0.289,1.326-0.797c1.755-3.306,2.683-7.118,2.683-11.023
		C97.5,36.28,96.021,31.596,93.226,27.635z"/>
	<path d="M85.933,59.949c-3.715,3.783-9.094,9.161-15.985,15.985c-0.589,0.582-0.593,1.532-0.01,2.121
		c0.293,0.296,0.679,0.444,1.065,0.444c0.382,0,0.763-0.145,1.056-0.435c6.901-6.833,12.289-12.222,16.015-16.015
		c0.58-0.591,0.572-1.54-0.02-2.121C87.463,59.35,86.514,59.358,85.933,59.949z"/>
	<path d="M25.542,33.421c-0.595-0.575-1.545-0.559-2.121,0.037c-4.548,4.71-4.548,12.374,0,17.084C23.715,50.847,24.107,51,24.5,51
		c0.375,0,0.751-0.14,1.042-0.421c0.596-0.576,0.612-1.525,0.037-2.121c-3.439-3.561-3.439-9.355,0-12.916
		C26.154,34.946,26.138,33.997,25.542,33.421z"/>
</g>
</svg>
